<mxfile host="app.diagrams.net" modified="2023-11-17T13:53:56.929Z" agent="Mozilla/5.0 (Windows NT 10.0; Win64; x64; rv:120.0) Gecko/20100101 Firefox/120.0" etag="U2NY-r1ooyNu68mRvRGj" version="22.0.0" type="device">
  <diagram name="Page-1" id="c4acf3e9-155e-7222-9cf6-157b1a14988f">
    <mxGraphModel dx="516" dy="710" grid="1" gridSize="10" guides="1" tooltips="1" connect="1" arrows="1" fold="1" page="1" pageScale="1" pageWidth="850" pageHeight="1100" background="none" math="0" shadow="0">
      <root>
        <mxCell id="0" />
        <mxCell id="1" parent="0" />
        <mxCell id="ZwYoC3tqRXhvaQF-fxXy-1" value="" style="rounded=0;whiteSpace=wrap;html=1;movable=1;resizable=1;rotatable=1;deletable=1;editable=1;locked=0;connectable=1;labelBackgroundColor=none;" vertex="1" parent="1">
          <mxGeometry x="980" y="450" width="590" height="200" as="geometry" />
        </mxCell>
        <mxCell id="kapSupRCASQFhV891r8T-21" value="users" style="swimlane;fontStyle=1;align=center;verticalAlign=top;childLayout=stackLayout;horizontal=1;startSize=26;horizontalStack=0;resizeParent=1;resizeParentMax=0;resizeLast=0;collapsible=1;marginBottom=0;whiteSpace=wrap;html=1;" parent="1" vertex="1">
          <mxGeometry x="1010" y="480" width="190" height="140" as="geometry">
            <mxRectangle x="340" y="440" width="80" height="30" as="alternateBounds" />
          </mxGeometry>
        </mxCell>
        <mxCell id="kapSupRCASQFhV891r8T-22" value="&lt;div&gt;+ id : int (11) (PK)&lt;/div&gt;" style="text;strokeColor=none;fillColor=none;align=left;verticalAlign=top;spacingLeft=4;spacingRight=4;overflow=hidden;rotatable=0;points=[[0,0.5],[1,0.5]];portConstraint=eastwest;whiteSpace=wrap;html=1;" parent="kapSupRCASQFhV891r8T-21" vertex="1">
          <mxGeometry y="26" width="190" height="24" as="geometry" />
        </mxCell>
        <mxCell id="kapSupRCASQFhV891r8T-23" value="" style="line;strokeWidth=1;fillColor=none;align=left;verticalAlign=middle;spacingTop=-1;spacingLeft=3;spacingRight=3;rotatable=0;labelPosition=right;points=[];portConstraint=eastwest;strokeColor=inherit;" parent="kapSupRCASQFhV891r8T-21" vertex="1">
          <mxGeometry y="50" width="190" height="8" as="geometry" />
        </mxCell>
        <mxCell id="kapSupRCASQFhV891r8T-24" value="&lt;div&gt;+ username : varchar (255)&lt;br&gt;&lt;/div&gt;&lt;div&gt;+ email : varchar (255)&lt;/div&gt;&lt;div&gt;+ password : varchar (255)&lt;/div&gt;&lt;div&gt;+ roles : json&lt;/div&gt;&lt;div&gt;+ created_at : datetime&lt;/div&gt;" style="text;strokeColor=none;fillColor=none;align=left;verticalAlign=top;spacingLeft=4;spacingRight=4;overflow=hidden;rotatable=0;points=[[0,0.5],[1,0.5]];portConstraint=eastwest;whiteSpace=wrap;html=1;" parent="kapSupRCASQFhV891r8T-21" vertex="1">
          <mxGeometry y="58" width="190" height="82" as="geometry" />
        </mxCell>
        <mxCell id="kapSupRCASQFhV891r8T-33" value="tasks" style="swimlane;fontStyle=1;align=center;verticalAlign=top;childLayout=stackLayout;horizontal=1;startSize=26;horizontalStack=0;resizeParent=1;resizeParentMax=0;resizeLast=0;collapsible=1;marginBottom=0;whiteSpace=wrap;html=1;" parent="1" vertex="1">
          <mxGeometry x="1340" y="475" width="200" height="150" as="geometry">
            <mxRectangle x="340" y="440" width="80" height="30" as="alternateBounds" />
          </mxGeometry>
        </mxCell>
        <mxCell id="kapSupRCASQFhV891r8T-34" value="+ id : int (11) (PK)&lt;br&gt;+ user_id : int (11) (FK)" style="text;strokeColor=none;fillColor=none;align=left;verticalAlign=top;spacingLeft=4;spacingRight=4;overflow=hidden;rotatable=0;points=[[0,0.5],[1,0.5]];portConstraint=eastwest;whiteSpace=wrap;html=1;" parent="kapSupRCASQFhV891r8T-33" vertex="1">
          <mxGeometry y="26" width="200" height="44" as="geometry" />
        </mxCell>
        <mxCell id="kapSupRCASQFhV891r8T-35" value="" style="line;strokeWidth=1;fillColor=none;align=left;verticalAlign=middle;spacingTop=-1;spacingLeft=3;spacingRight=3;rotatable=0;labelPosition=right;points=[];portConstraint=eastwest;strokeColor=inherit;" parent="kapSupRCASQFhV891r8T-33" vertex="1">
          <mxGeometry y="70" width="200" height="8" as="geometry" />
        </mxCell>
        <mxCell id="kapSupRCASQFhV891r8T-36" value="&lt;div&gt;+ title : varchar (255)&lt;br&gt;&lt;/div&gt;&lt;div&gt;+ content : text&lt;br&gt;&lt;/div&gt;&lt;div&gt;+ is_done : tinyint(1)&lt;br&gt;&lt;/div&gt;&lt;div&gt;+ created_at : datetime&lt;br&gt;&lt;/div&gt;" style="text;strokeColor=none;fillColor=none;align=left;verticalAlign=top;spacingLeft=4;spacingRight=4;overflow=hidden;rotatable=0;points=[[0,0.5],[1,0.5]];portConstraint=eastwest;whiteSpace=wrap;html=1;" parent="kapSupRCASQFhV891r8T-33" vertex="1">
          <mxGeometry y="78" width="200" height="72" as="geometry" />
        </mxCell>
        <mxCell id="a0YfyHj8twJPtljxr0E_-3" value="Relation" style="endArrow=open;html=1;endSize=12;startArrow=diamondThin;startSize=14;startFill=0;edgeStyle=orthogonalEdgeStyle;rounded=0;" parent="1" source="kapSupRCASQFhV891r8T-33" target="kapSupRCASQFhV891r8T-21" edge="1">
          <mxGeometry relative="1" as="geometry">
            <mxPoint x="1080" y="1037" as="sourcePoint" />
            <mxPoint x="1240" y="1037" as="targetPoint" />
          </mxGeometry>
        </mxCell>
        <mxCell id="a0YfyHj8twJPtljxr0E_-4" value="0..n" style="edgeLabel;resizable=0;html=1;align=left;verticalAlign=top;" parent="a0YfyHj8twJPtljxr0E_-3" connectable="0" vertex="1">
          <mxGeometry x="-1" relative="1" as="geometry">
            <mxPoint x="-30" y="7" as="offset" />
          </mxGeometry>
        </mxCell>
        <mxCell id="a0YfyHj8twJPtljxr0E_-5" value="1" style="edgeLabel;resizable=0;html=1;align=right;verticalAlign=top;" parent="a0YfyHj8twJPtljxr0E_-3" connectable="0" vertex="1">
          <mxGeometry x="1" relative="1" as="geometry">
            <mxPoint x="20" y="7" as="offset" />
          </mxGeometry>
        </mxCell>
      </root>
    </mxGraphModel>
  </diagram>
</mxfile>
